<?xml version="1.0" standalone="no"?>
<!DOCTYPE svg PUBLIC "-//W3C//DTD SVG 20010904//EN"
 "http://www.w3.org/TR/2001/REC-SVG-20010904/DTD/svg10.dtd">
<svg version="1.0" xmlns="http://www.w3.org/2000/svg"
 width="225.000000pt" height="225.000000pt" viewBox="0 0 225.000000 225.000000"
 preserveAspectRatio="xMidYMid meet">
<metadata>
Created by potrace 1.11, written by Peter Selinger 2001-2013
</metadata>
<g transform="translate(0.000000,225.000000) scale(0.100000,-0.100000)"
fill="#000000" stroke="none">
<path d="M1487 1888 c-2 -7 -33 -92 -67 -188 -35 -96 -66 -179 -71 -184 -12
-13 -248 74 -260 96 -8 15 -17 18 -39 13 -16 -4 -43 0 -65 9 l-36 15 -19 -42
c-26 -55 -25 -66 5 -77 14 -5 25 -16 25 -24 0 -17 -46 -52 -118 -91 -69 -37
-159 -134 -202 -218 l-35 -66 -38 37 c-21 20 -68 79 -104 130 -44 63 -70 92
-81 90 -26 -5 -25 -32 4 -100 14 -35 26 -76 26 -92 -2 -36 17 -72 57 -111 20
-20 31 -40 31 -60 1 -16 7 -43 14 -60 9 -20 10 -40 4 -60 -32 -109 -51 -195
-87 -380 -23 -116 -44 -220 -47 -233 -6 -22 -5 -23 47 -20 46 3 54 6 57 24 2
16 14 23 50 32 26 6 55 14 66 18 16 6 17 4 7 -14 -15 -29 -14 -32 12 -32 40 0
113 56 178 134 34 42 66 76 71 76 10 0 101 -22 106 -25 2 -1 -6 -27 -18 -56
-11 -30 -20 -57 -20 -61 0 -11 101 -41 110 -32 4 5 17 38 29 74 28 84 26 82
96 118 85 43 142 95 157 143 11 40 67 99 92 99 14 0 56 -194 86 -400 l16 -115
55 1 c30 0 53 5 53 10 -4 24 -70 307 -104 451 -48 197 -70 262 -127 376 l-44
89 27 79 c15 44 31 82 35 85 4 2 96 -27 204 -66 109 -39 198 -70 199 -68 10
13 37 100 33 104 -3 3 -92 37 -199 76 -106 39 -194 71 -195 73 -2 1 29 88 67
194 39 105 70 196 70 200 0 8 -82 41 -101 41 -4 0 -9 -6 -12 -12z m62 -19 c17
-6 31 -14 31 -18 0 -3 -32 -93 -70 -200 -39 -107 -69 -195 -68 -197 2 -1 80
-30 173 -64 223 -80 225 -81 225 -91 0 -6 -17 -52 -26 -67 0 -1 -90 30 -198
69 -109 39 -201 67 -205 63 -4 -5 -18 -38 -31 -74 -13 -36 -26 -69 -30 -73 -4
-5 -19 12 -33 37 l-25 46 19 52 c10 28 18 52 16 53 -1 1 -31 12 -67 25 -36 12
-89 31 -118 42 l-53 20 3 41 c2 23 8 41 13 40 6 -1 61 -21 123 -43 62 -23 119
-40 125 -37 7 3 23 36 36 73 67 192 114 314 121 314 4 0 21 -5 39 -11z m-543
-260 l29 -11 -35 -29 c-38 -32 -58 -36 -66 -15 -7 17 24 79 35 72 4 -3 21 -10
37 -17z m62 -146 c-1 -82 1 -178 6 -214 8 -63 7 -70 -25 -140 -42 -91 -45
-160 -10 -229 31 -60 57 -87 98 -101 44 -14 91 -5 138 27 l38 25 48 -22 48
-23 -37 -21 c-28 -15 -41 -32 -54 -70 -22 -60 -76 -112 -161 -155 -49 -24 -73
-30 -126 -30 -80 0 -141 9 -141 21 0 5 16 27 36 49 20 22 34 43 32 46 -3 3
-67 -60 -143 -140 -127 -134 -161 -164 -172 -152 -3 2 12 23 32 45 43 47 39
51 -13 16 -39 -27 -139 -61 -149 -51 -9 9 15 33 73 71 30 20 54 38 54 40 0 3
-26 -7 -57 -20 -31 -14 -64 -24 -73 -22 -13 2 85 64 302 189 l78 44 -92 45
c-101 49 -148 88 -148 125 0 27 6 29 44 14 44 -16 29 -3 -34 31 -33 17 -60 37
-60 44 0 13 40 147 45 153 4 4 169 -118 173 -128 1 -4 -9 -15 -23 -24 -33 -22
-32 -53 3 -102 47 -64 68 -74 28 -12 -21 31 -36 65 -34 75 4 22 37 30 50 11 7
-9 8 -5 4 12 -30 118 -32 206 -9 281 15 48 18 51 20 24 7 -67 25 -166 30 -162
2 3 -1 69 -8 147 -9 111 -9 150 1 183 11 38 54 97 71 97 3 0 4 -21 1 -47 -8
-76 9 -42 24 49 8 46 20 87 26 93 7 7 9 -1 5 -27 -3 -21 -2 -38 3 -38 5 0 12
17 16 38 10 53 22 82 34 82 8 0 10 -46 8 -147z m129 -28 c54 -20 101 -39 105
-43 3 -4 0 -22 -8 -40 l-14 -34 -48 44 c-49 44 -75 60 -124 78 -27 9 -39 30
-18 30 5 0 53 -16 107 -35z m25 -124 c22 -25 37 -52 35 -61 -30 -97 -153 -418
-159 -414 -5 3 -20 28 -33 55 -36 71 -35 119 4 213 28 68 32 87 27 130 -3 28
-9 80 -13 115 l-6 64 53 -29 c28 -15 70 -49 92 -73z m-369 12 c-2 -32 -16 -95
-30 -140 -19 -62 -24 -96 -21 -142 2 -34 2 -61 -1 -61 -16 1 -141 102 -141
114 0 8 20 55 45 104 33 65 60 103 96 136 28 25 52 46 53 46 2 0 1 -26 -1 -57z
m-380 -68 c23 -33 59 -79 81 -103 l39 -43 -20 -52 c-12 -29 -24 -61 -28 -72
l-7 -20 -8 20 c-14 34 -12 48 8 40 10 -4 5 6 -14 27 -64 68 -109 145 -73 122
7 -4 10 -3 7 2 -36 76 -67 144 -73 164 l-7 25 27 -25 c15 -14 46 -52 68 -85z
m196 -72 c-16 -36 -50 -130 -75 -207 -25 -78 -52 -159 -60 -181 -14 -39 -14
-39 -8 -5 17 94 150 460 168 460 3 0 -8 -30 -25 -67z m636 -95 c-95 -271 -107
-298 -129 -298 -12 0 -30 6 -40 13 -17 12 -14 25 52 208 39 107 74 203 78 213
6 16 12 11 33 -32 l25 -52 -19 -52z m90 -24 c20 -47 35 -88 32 -90 -2 -2 -19
31 -37 73 -43 103 -43 103 -37 103 2 0 21 -39 42 -86z m-32 -24 c30 -82 63
-218 54 -227 -4 -3 -29 4 -57 17 l-49 23 -42 -27 c-22 -15 -43 -26 -45 -24 -2
2 22 72 53 156 31 84 57 151 59 150 1 -2 13 -32 27 -68z m87 -120 c0 -13 -1
-13 -10 0 -5 8 -10 22 -10 30 0 13 1 13 10 0 5 -8 10 -22 10 -30z m-830 -60
c11 -6 16 -17 13 -29 -12 -48 66 -121 180 -170 l42 -18 -60 -30 c-95 -48 -238
-133 -261 -154 -11 -10 -23 -19 -26 -19 -5 0 53 320 71 388 13 46 14 47 41 32z
m859 -45 l0 -20 -9 20 c-5 11 -9 29 -9 40 l0 20 9 -20 c5 -11 9 -29 9 -40z m8
-47 c-3 -8 -6 -5 -6 6 -1 11 2 17 5 13 3 -3 4 -12 1 -19z m-972 -58 c-4 -17
-9 -29 -12 -26 -3 2 -2 19 2 36 4 17 9 29 12 26 3 -2 2 -19 -2 -36z m993 -20
c0 -9 -3 -7 -8 5 -5 11 -8 29 -8 40 0 16 2 15 8 -5 4 -14 8 -32 8 -40z m-1023
-101 c-9 -41 -20 -96 -25 -123 -10 -50 -20 -72 -20 -44 0 8 11 66 25 128 14
62 25 115 25 118 0 3 2 3 5 0 3 -3 -1 -39 -10 -79z m1053 -34 c0 -16 -2 -15
-8 5 -4 14 -8 34 -8 45 0 16 2 15 8 -5 4 -14 8 -34 8 -45z m9 -47 c-3 -8 -6
-5 -6 6 -1 11 2 17 5 13 3 -3 4 -12 1 -19z m-462 -35 c-4 -10 -14 -38 -22 -63
-9 -25 -19 -49 -23 -54 -7 -7 -80 10 -80 19 0 2 21 65 35 103 3 7 23 12 51 12
40 0 45 -2 39 -17z m483 -48 c0 -16 -2 -15 -8 5 -4 14 -8 34 -8 45 0 16 2 15
8 -5 4 -14 8 -34 8 -45z m-1131 -57 c-3 -7 -5 -2 -5 12 0 14 2 19 5 13 2 -7 2
-19 0 -25z m75 10 c-7 -7 -12 -8 -12 -2 0 6 3 14 7 17 3 4 9 5 12 2 2 -3 -1
-11 -7 -17z"/>
</g>
</svg>
